<svg width="46" height="64" viewBox="0 0 46 64" fill="none" xmlns="http://www.w3.org/2000/svg">
<path d="M23.0649 13.0467C24.3083 10.7064 25.5774 6.61629 23.5001 3.50022C20.5001 -0.999779 16.5001 0.000220418 15.5001 2.00022C14.5001 4.00022 16.0001 6.5 17.5001 8C18.502 9.0019 20.503 11.4678 21.8154 13.1277C22.1541 13.556 22.8087 13.5289 23.0649 13.0467Z" fill="url(#paint0_linear_2002_201)"/>
<path d="M12.5779 22.6767C12.4733 22.0817 11.8273 21.6779 11.3036 21.9789C4.54876 25.8616 0 33.1494 0 41.4997C0 53.9261 10.0736 63.9997 22.5 63.9997C34.9264 63.9997 45.5 53.9264 45.5 41.5C45.5 40.0994 45.3128 38.5949 45.0268 37.1722C44.8705 36.3948 43.8546 36.2905 43.5 36.9997C42.5 38.9997 40.5 39.1664 39.5 38.4997C38 37.4997 38 35.9997 39 32.4997C39.4383 30.9658 39.6965 28.9616 39.8404 27.1613C39.8404 25.0738 39.5228 14.7405 28.6882 7.7301C28.1699 7.39469 27.4926 7.77456 27.4558 8.39089C27.3 10.9991 26.7026 14.8491 25.1928 19.1592C23.8163 21.9558 20.6921 26.4997 17 26.4997C14.0244 26.4997 12.8934 24.4707 12.5779 22.6767Z" fill="url(#paint1_linear_2002_201)"/>
<defs>
<linearGradient id="paint0_linear_2002_201" x1="22.75" y1="0.309082" x2="22.75" y2="63.9997" gradientUnits="userSpaceOnUse">
<stop stop-color="#003CFF"/>
<stop offset="1" stop-color="#FF0000"/>
</linearGradient>
<linearGradient id="paint1_linear_2002_201" x1="22.75" y1="0.309082" x2="22.75" y2="63.9997" gradientUnits="userSpaceOnUse">
<stop stop-color="#003CFF"/>
<stop offset="1" stop-color="#FF0000"/>
</linearGradient>
</defs>
</svg>
