<svg width="24" height="24" viewBox="0 0 24 24" fill="none" xmlns="http://www.w3.org/2000/svg">
<path d="M18.1714 18.1714C16.8107 16.3058 14.5539 15.0857 12 15.0857C9.44613 15.0857 7.18934 16.3058 5.82857 18.1714M21 12C21 16.9706 16.9706 21 12 21C7.02944 21 3 16.9706 3 12C3 7.02944 7.02944 3 12 3C16.9706 3 21 7.02944 21 12ZM15.0857 9.42857C15.0857 11.1328 13.7042 12.5143 12 12.5143C10.2958 12.5143 8.91429 11.1328 8.91429 9.42857C8.91429 7.72438 10.2958 6.34286 12 6.34286C13.7042 6.34286 15.0857 7.72438 15.0857 9.42857Z" stroke="white" stroke-width="1.5" stroke-linecap="round" stroke-linejoin="round"/>
</svg>
