<?xml version="1.0" encoding="utf-8"?>
<!-- Uploaded to: SVG Repo, www.svgrepo.com, Generator: SVG Repo Mixer Tools -->
<svg width="800px" height="800px" viewBox="0 -70.63 390.645 390.645" xmlns="http://www.w3.org/2000/svg"><defs><style>.a{fill:#ffffff;}.b{fill:#87cce3;}.c{fill:#f4b467;}.d{fill:#211715;}</style></defs><path class="a" d="M131.152,208.992c19.556,0,113.9-.112,146.593-.112l92.289-7.788a121.287,121.287,0,0,0,13.34-2.138c6-3.481,5.143-21.187,3.7-29.339-3.8-21.478-11.938-33.162-20.368-38.846-5.1-3.44-8.842-8.435-11.692-13.888-6.267-11.99-12.786-25.027-20.2-41.1-4.432-9.6-14.3-15.379-24.874-15.489-42.225-.439-120-.587-149.389.044A38.177,38.177,0,0,0,133.436,73c-8.645,9.427-17.642,19.758-24.346,27.12a28.316,28.316,0,0,1-15.514,8.715c-23.53,4.609-48.524,10.38-68.4,17.059-8.2,2.756-17.121,6.337-20.971,14.088-4.25,8.557-.352,18.624,2.878,27.615,1.926,5.36,3.551,9.874,5.574,14.8.186-.016.37-.028.553-.036,2.4-.094,4.794,0,7.057,0,1.185,0,3.643-.13,5.408-.294a43.956,43.956,0,0,1,17.7-16.741c9.115-4.92,18.23-5.575,28.445-4.889,22.074,1.481,34.666,13.778,41.721,33.79,1.686,5.469,3.834,10.358,6.294,12.356,3.649,2.965,5.693,2.41,11.318,2.41"/><path class="b" d="M117.321,122c8.644-10.365,23.458-28.413,31.46-38.3a16.593,16.593,0,0,1,12.932-6.154c14.866.03,45.49.1,57.541.122a4.725,4.725,0,0,1,4.718,4.685c.09,8.846.331,25.985.392,37.584a4.739,4.739,0,0,1-4.744,4.764c-25.584.014-76.56.123-89.945.123Z"/><path class="b" d="M318.232,88.214c-1.258-2.974-2.412-5.639-3.38-7.762a4.747,4.747,0,0,0-4.325-2.788c-15.044.025-48.085.207-61.007.26a4.732,4.732,0,0,0-4.718,4.723c-.028,8.459-.093,25.656-.113,36.049a5.166,5.166,0,0,0,5.212,5.177c14.878-.119,56.613-.5,75.816-.6a4.741,4.741,0,0,0,4.337-6.6C326.611,108.549,321.962,97.028,318.232,88.214Z"/><path class="c" d="M168.205,10.746c-.754,11.589-1.309,24.812-1.533,36.111a3.905,3.905,0,0,0,3.95,3.939c37.6-.212,94.97.364,132.352.148a3.872,3.872,0,0,0,3.882-3.924c-.294-11.018-1.182-27.129-2.071-36.244a4.131,4.131,0,0,0-3.914-3.9c-27.89-1.331-94.814-1.872-128.753-.071A4.111,4.111,0,0,0,168.205,10.746Z"/><path class="d" d="M317.459,58.4a10.057,10.057,0,0,0-9.917-9.745c-.49-.009-.982,0-1.472,0H165.813c-3.475,0-6.708.017-9.57,2.53a10.016,10.016,0,0,0-3.293,7.585c.017,3.087,4.817,3.094,4.8,0a5.175,5.175,0,0,1,5.239-5.315c.631-.008,1.263,0,1.894,0H303.767c1.761,0,4.151-.325,5.808.4a5.185,5.185,0,0,1,3.084,4.548c.134,3.077,4.935,3.094,4.8,0Z"/><path class="d" d="M185.89,53.132l9.228-.2V4.614A4.614,4.614,0,0,0,190.369,0h0a4.613,4.613,0,0,0-4.479,4.612Z"/><path class="d" d="M281.593,53.132l9.229-.2V4.614A4.614,4.614,0,0,0,286.073,0h0a4.614,4.614,0,0,0-4.48,4.612Z"/><path class="d" d="M165.805,10.746q-.737,11.379-1.148,22.775-.209,5.6-.339,11.2a10.362,10.362,0,0,0,.606,4.963,6.339,6.339,0,0,0,3.746,3.214,13.8,13.8,0,0,0,4.265.291l4.418-.018q4.452-.014,8.9-.017,9.548-.007,19.094.018c26.744.06,53.488.238,80.232.225,5.778,0,11.62.223,17.392-.049a6.393,6.393,0,0,0,6.282-6.324c.055-3.1-.2-6.234-.336-9.327-.288-6.6-.653-13.191-1.137-19.777q-.151-2.056-.324-4.111a28.074,28.074,0,0,0-.47-4.328c-.81-3.265-3.566-4.881-6.749-5.029-20.713-.96-41.476-1.124-62.207-1.182q-17.958-.051-35.915.213-8.125.132-16.25.371c-4.671.143-9.436.108-14.087.588a6.656,6.656,0,0,0-5.976,6.308,2.415,2.415,0,0,0,2.4,2.4,2.454,2.454,0,0,0,2.4-2.4c.205-2.019,2.92-1.614,4.372-1.682q3.352-.158,6.708-.275,7.518-.27,15.04-.412c11.206-.226,22.416-.312,33.625-.319,20.883-.014,41.779.172,62.65.9q2.859.1,5.718.222c1.676.073,3.382-.163,3.694,1.88.4,2.609.462,5.32.65,7.951q.333,4.685.593,9.376c.342,6.088.692,12.193.791,18.291.043,2.577-2.965,1.874-4.772,1.883q-4.149.018-8.3.025c-25.2.047-50.408-.111-75.612-.19q-18.162-.057-36.322-.035-4.082.011-8.165.032c-.811,0-1.694,0-2.086-.864a3.531,3.531,0,0,1-.1-1.523q.032-1.515.071-3.031.278-10.961.847-21.913.265-5.16.6-10.316a2.4,2.4,0,1,0-4.8,0Z"/><path class="d" d="M220.83,143.383c-.038-1.84.156-3.835-.863-5.464a5.517,5.517,0,0,0-4.539-2.522c-.828-.036-1.665,0-2.494,0H200.953c-3.343,0-7.666-.671-9.451,2.971-.8,1.638-.628,3.72-.458,5.491a5.4,5.4,0,0,0,2.827,4.309,9.222,9.222,0,0,0,4.4.616h14.817c1.633,0,3.342.165,4.845-.6a5.468,5.468,0,0,0,2.894-4.8c.1-3.09-4.7-3.086-4.8,0-.021.627-.455.6-1.053.6H197.132c-.635,0-1.052.133-1.313-.45a7.24,7.24,0,0,1-.069-2.264c0-.339-.1-.64.12-.882.294-.328,1.093-.191,1.544-.191H211.4c1.205,0,2.416-.032,3.621,0a1.688,1.688,0,0,1,.595.035c.24.1.236.149.359.436a9.31,9.31,0,0,1,.058,2.715C216.094,146.467,220.894,146.478,220.83,143.383Z"/><path class="d" d="M275.1,188.731q-12.935.023-25.868.015-17.772,0-35.544-.011-18.471-.011-36.943-.024l-30.517-.026q-7.892-.006-15.781-.013H129.9c-3.089,0-3.094,4.8,0,4.8q6.733,0,13.469.011,14.584.012,29.169.024,18.29.015,36.58.026,18.081.009,36.163.013,13.7,0,27.393-.011l2.426,0c3.088,0,3.093-4.805,0-4.8Z"/><path class="d" d="M20.263,179.96c-3.88-.007-8.026-.54-11.663,1.095a11.819,11.819,0,0,0-6.136,7.512,19.225,19.225,0,0,0-.558,5.335,12.448,12.448,0,0,0,.458,4.11c1.041,2.936,3.627,4.423,6.582,4.751a50.429,50.429,0,0,0,5.54.126h6.37c3.088,0,3.093-4.8,0-4.8-3.186,0-6.374.039-9.56-.006-.633-.009-1.267-.026-1.9-.077-.15-.012-.3-.028-.451-.043.093.009.463.091.028,0-.236-.05-.469-.1-.7-.16-.107-.026-.206-.073-.311-.1.076.021.468.265.149.058-.093-.06-.58-.314-.253-.122s-.282-.247-.385-.348-.188-.2-.287-.3c-.413-.406.122.219-.03-.039-.107-.181-.212-.355-.3-.545.258.541.006-.093-.035-.272-.028-.122-.048-.246-.07-.369,0,.028.047.434.025.145-.025-.331-.045-.66-.054-.991-.018-.679-.016-1.36-.009-2.039a9.878,9.878,0,0,1,.607-3.72c0-.012.146-.368.052-.147-.1.245.092-.188.117-.239.157-.306.32-.608.5-.9a6.044,6.044,0,0,1,2.2-2.252,5.331,5.331,0,0,1,1.763-.683c.168-.041.338-.074.508-.108.233-.048-.147-.007.248-.038s.814-.045,1.222-.056c2.112-.052,4.225.019,6.337.023,3.089.006,3.094-4.794,0-4.8Z"/><path class="d" d="M131.152,206.592c-1.182,0-2.365.033-3.547.039-.455,0-.911,0-1.366-.013-.207-.008-1.2-.082-.977-.052a7.157,7.157,0,0,1-4.239-2.14,16.816,16.816,0,0,1-3.288-5.539c-1.049-2.487-1.762-5.095-2.734-7.611-2.98-7.715-7.1-15.107-13.108-20.887a43.947,43.947,0,0,0-21.224-11.131,71.171,71.171,0,0,0-14.941-1.449,52.464,52.464,0,0,0-15.839,2.17A47.249,47.249,0,0,0,23.6,180.854l2.073-1.188c-1.8.161-3.6.282-5.408.294-3.087.021-3.094,4.821,0,4.8,1.163-.007,2.325-.069,3.485-.145,1.674-.109,3.162-.051,4.152-1.608a46.852,46.852,0,0,1,3.551-5.079,44.012,44.012,0,0,1,11.93-9.861c9.6-5.5,20.715-6.223,31.518-4.947a41.007,41.007,0,0,1,21.829,9.056c6.179,5.283,10.5,12.381,13.455,19.89,2.071,5.26,3.256,11.641,7.446,15.755a12.207,12.207,0,0,0,5.978,3.308,38.969,38.969,0,0,0,7.545.263c3.088-.008,3.094-4.808,0-4.8Z"/><path class="d" d="M131.152,211.392q9.473,0,18.945-.011l30.078-.027,34.861-.032q16.848-.015,33.7-.028,13.239-.009,26.478-.013h2.533c3.088,0,3.093-4.8,0-4.8q-12.566,0-25.131.011-16.64.012-33.278.027l-35.043.032-30.886.028q-10.337.009-20.672.013h-1.583c-3.088,0-3.094,4.8,0,4.8Z"/><path class="d" d="M234.118,140.348q-.952,9.787-2.067,19.561c-.677,5.906-1.288,11.681-2.357,17.506a2.467,2.467,0,0,0,1.676,2.953,2.421,2.421,0,0,0,2.952-1.677c1.118-6.09,1.781-12.276,2.488-18.424q1.144-9.949,2.108-19.919a2.417,2.417,0,0,0-2.4-2.4,2.453,2.453,0,0,0-2.4,2.4Z"/><path class="d" d="M119.018,123.7q9.082-10.891,18.057-21.87,4.508-5.5,9-11.008c2.649-3.251,5.095-7.1,8.847-9.16,3.705-2.034,7.789-1.709,11.863-1.7l12.783.027,27.388.059,10.624.022c1.413,0,3.059-.19,3.765,1.316a4.8,4.8,0,0,1,.238,2.039q.016,1.561.035,3.124c.115,9.957.25,19.913.323,29.871.012,1.581.573,4.143-.771,5.318-1.14,1-3.266.569-4.674.57q-5.747,0-11.493.012-13.455.016-26.91.04-22.752.036-45.5.068h-2.913c-3.089,0-3.094,4.8,0,4.8q21.934,0,43.869-.062,14.041-.023,28.084-.042,6.194-.009,12.386-.014c1.824,0,3.656.043,5.48,0a7.333,7.333,0,0,0,6.406-3.736c1.2-2.229.857-4.879.839-7.318q-.03-3.956-.072-7.912-.081-7.959-.182-15.92-.041-3.456-.081-6.914c-.025-2.251.172-4.618-1.072-6.617a7.334,7.334,0,0,0-6.276-3.417c-1.577-.022-3.156-.006-4.733-.009-17.533-.036-35.078-.277-52.61-.113a19.16,19.16,0,0,0-14.383,6.56c-2.87,3.378-5.6,6.887-8.4,10.319q-9.608,11.754-19.288,23.447-2,2.418-4.014,4.829a2.468,2.468,0,0,0,0,3.394,2.418,2.418,0,0,0,3.394,0Z"/><path class="d" d="M14.773,181.283c-2.086-5.144-3.955-10.368-5.834-15.59-1.814-5.043-3.813-10.271-4.152-15.67A16.668,16.668,0,0,1,9.36,136.874c3.077-3.121,7.136-5.171,11.172-6.768,9.468-3.745,19.45-6.4,29.286-8.977,11.006-2.883,22.1-5.41,33.24-7.731,5.217-1.088,10.809-1.683,15.807-3.582a31.393,31.393,0,0,0,11.922-8c7.292-7.852,14.255-16.013,21.455-23.949,3.441-3.793,6.842-7.391,11.266-10.061a35.137,35.137,0,0,1,13.41-4.8c5.976-.8,12.283-.421,18.3-.483,33.322-.346,66.651-.251,99.973-.083q12.078.062,24.155.158c7.9.065,16.022-.595,23.174,3.4a24.06,24.06,0,0,1,9.184,9c2.747,4.792,4.795,10.1,7.185,15.077q6.53,13.608,13.513,26.99a46.9,46.9,0,0,0,8.369,11.918c2.578,2.545,5.737,4.324,8.364,6.8,5.3,5,8.908,11.59,11.4,18.371a82.83,82.83,0,0,1,5.125,25.117,50.2,50.2,0,0,1-.545,11.139,18.807,18.807,0,0,1-1.1,3.991c-.553,1.282-1.1,2.149-2.325,2.437a88.955,88.955,0,0,1-11.655,1.854c-3.047.295-3.078,5.1,0,4.8,4.245-.412,8.407-1.168,12.594-1.962,3.614-.685,5.387-3.711,6.432-7.03,2.248-7.138,1.725-15.41.751-22.726-2.094-15.728-8.066-33.391-21.615-42.887-8.232-5.77-12.152-15.107-16.557-23.8-5.113-10.085-9.888-20.318-14.757-30.52A29.6,29.6,0,0,0,315.6,58.463c-4-.737-8.087-.6-12.139-.633q-5.891-.052-11.781-.094c-35.366-.25-70.739-.346-106.106-.1q-9.837.068-19.674.207a78.472,78.472,0,0,0-10.215.53,39.5,39.5,0,0,0-14.08,4.982,50.466,50.466,0,0,0-11.789,10.055c-4,4.392-7.949,8.826-11.9,13.262-6.7,7.528-12.95,16.746-23.2,19.441-5.39,1.417-10.984,2.238-16.438,3.4q-8.754,1.863-17.463,3.929c-11,2.622-21.95,5.509-32.719,8.968-8.734,2.806-18.569,5.871-24.255,13.589-6.9,9.371-3.076,21.109.472,30.975,1.878,5.222,3.748,10.446,5.833,15.59,1.146,2.826,5.791,1.59,4.629-1.276Z"/><path class="d" d="M320.3,87c-1.054-2.488-2.1-4.984-3.233-7.439a7.229,7.229,0,0,0-5.854-4.249,95.67,95.67,0,0,0-10.091-.024q-12.8.045-25.606.111-11.493.056-22.988.11a19.335,19.335,0,0,0-4.8.246,7.239,7.239,0,0,0-4.96,4.639c-.616,1.8-.377,3.918-.383,5.8l-.021,6.108q-.025,7.089-.048,14.178-.011,3.494-.02,6.989a47.284,47.284,0,0,0,.073,6.221,7.571,7.571,0,0,0,3.778,5.612,10.563,10.563,0,0,0,5.451.954l8.88-.075q24.942-.215,49.885-.414,5.444-.04,10.889-.076c1.589-.01,3.21.072,4.8-.04a7.238,7.238,0,0,0,5.83-3.567,7.43,7.43,0,0,0,.175-6.793q-1.346-3.178-2.661-6.369c-2.045-4.936-4.069-9.881-6.116-14.816Q321.8,90.552,320.3,87a2.414,2.414,0,0,0-3.283-.861,2.465,2.465,0,0,0-.861,3.284c3.732,8.827,7.3,17.723,11.019,26.555.623,1.479,1.4,2.905.214,4.16-.93.986-2.431.733-3.7.74q-4.866.029-9.731.064-23.671.171-47.343.388l-9.818.084-4.06.034a15.319,15.319,0,0,1-3.532-.053c-1.543-.37-2.114-1.7-2.118-3.155,0-1.943.009-3.886.015-5.828q.018-6.618.041-13.235.021-6.186.043-12.374,0-1.236.008-2.473a8.454,8.454,0,0,1,.106-2.354c.406-1.325,1.554-1.651,2.816-1.656q10.016-.042,20.033-.095,12.209-.059,24.416-.111,5.389-.022,10.779-.039,2.244-.007,4.488-.011a3.4,3.4,0,0,1,1.909.341,4.46,4.46,0,0,1,1.484,2.247c1.006,2.245,1.973,4.506,2.933,6.771a2.413,2.413,0,0,0,3.283.861A2.464,2.464,0,0,0,320.3,87Z"/><path class="d" d="M64.342,174.135c-20.566,0-36.909,13.809-36.909,35.98,0,28.378,21.368,39.274,37.5,39.274,17.737,0,37.5-9.882,37.5-38.007C102.433,193.9,90.947,174.135,64.342,174.135Z"/><path class="a" d="M64.724,198.486c-7.256,0-13.022,4.872-13.022,12.7,0,10.013,7.539,13.857,13.231,13.857,6.258,0,13.231-3.487,13.231-13.41C78.164,205.459,74.111,198.486,64.724,198.486Z"/><path class="d" d="M325.22,174.135c-20.566,0-36.909,13.809-36.909,35.98,0,28.378,21.368,39.274,37.5,39.274,17.737,0,37.5-9.882,37.5-38.007C363.311,193.9,351.825,174.135,325.22,174.135Z"/><path class="a" d="M325.6,198.486c-7.256,0-13.022,4.872-13.022,12.7,0,10.013,7.539,13.857,13.231,13.857,6.258,0,13.231-3.487,13.231-13.41C339.042,205.459,334.989,198.486,325.6,198.486Z"/><path class="a" d="M114.668,116.461a9.233,9.233,0,0,1,1.609-5.611c1.1-1.655,4.724-3.578,6.72-3.685l3.175-.109a5.17,5.17,0,0,1,4.322,3.217c.695,2.611.336,8.553.4,9.711a82.539,82.539,0,0,1-.3,11.637c-.184,1.59-1.272,3.276-4.044,2.7s-6.8-1.1-8.066-2.626a14.914,14.914,0,0,1-2.511-6.23A65.182,65.182,0,0,1,114.668,116.461Z"/><path class="d" d="M117.068,116.461c.046-2.354.67-4.221,2.54-5.426a8.194,8.194,0,0,1,4.507-1.509c1.537-.052,2.663-.344,3.734.9a2.743,2.743,0,0,1,.542,1.685c.115,1.182.136,2.373.14,3.559.011,4.092.144,8.211-.052,12.3a25.082,25.082,0,0,1-.282,3.489c-.03.152-.122.316-.142.469.042-.316-.263.145-.026-.015s-.08.079-.122.091c.147-.044-.511.027-.575.024a21.362,21.362,0,0,1-3.307-.643,12.722,12.722,0,0,1-3.321-.984c-.515-.277-.423-.25-.776-.806a8.793,8.793,0,0,1-.87-1.874,29.2,29.2,0,0,1-1-4.063,40.609,40.609,0,0,1-.99-7.2c-.021-3.087-4.821-3.094-4.8,0a48.054,48.054,0,0,0,1.161,8.474c.566,2.979,1.338,6.67,3.7,8.794,2.257,2.031,5.917,2.395,8.785,2.907,3.227.577,6.349-.791,6.979-4.258.958-5.275.422-10.877.439-16.22.009-2.7.223-6.114-1.478-8.379a8.018,8.018,0,0,0-4.047-2.89,8.832,8.832,0,0,0-2.867-.191,14.382,14.382,0,0,0-7.753,2.192c-3.386,2.183-4.84,5.617-4.917,9.571C112.208,119.551,117.008,119.551,117.068,116.461Z"/><path class="d" d="M321.488,155.676c-14.212,0-28.6,5.224-37.531,16.683a40.36,40.36,0,0,0-5.375,9.227,2.413,2.413,0,0,0,1.676,2.952,2.462,2.462,0,0,0,2.952-1.676c4.533-10.753,14.8-18.229,26.079-21a50.96,50.96,0,0,1,12.2-1.386c3.089,0,3.094-4.8,0-4.8Z"/><path class="d" d="M365.567,138.8a6.6,6.6,0,0,0-1.939,4.605,17.978,17.978,0,0,0,1.272,4.9q1.649,5.275,3.433,10.508c1.188,3.5,2.346,7.029,3.677,10.478s4.535,4.683,7.934,5.243a2.472,2.472,0,0,0,2.953-1.676,2.419,2.419,0,0,0-1.677-2.952,9.811,9.811,0,0,1-3.672-1,4.265,4.265,0,0,1-1.47-2.44q-1.594-4.452-3.117-8.928-1.445-4.254-2.81-8.533-.657-2.067-1.293-4.143c-.3-1-.72-1.828.1-2.663,2.171-2.2-1.221-5.6-3.394-3.394Z"/><path class="d" d="M16.715,137.6c-2.424,2-3.742,5.206-4.5,8.176a28.252,28.252,0,0,0-.649,10.524,2.479,2.479,0,0,0,2.4,2.4,2.413,2.413,0,0,0,2.4-2.4,24.635,24.635,0,0,1,.41-8.977c.616-2.537,1.4-4.732,3.333-6.329a2.417,2.417,0,0,0,0-3.394,2.452,2.452,0,0,0-3.394,0Z"/><path class="d" d="M208.988,36.807h56.1c3.089,0,3.094-4.8,0-4.8h-56.1c-3.088,0-3.093,4.8,0,4.8Z"/><path class="d" d="M222.97,25.844h42.114c3.089,0,3.094-4.8,0-4.8H222.97c-3.089,0-3.094,4.8,0,4.8Z"/></svg>