<?xml version="1.0" encoding="iso-8859-1"?>
<!-- Uploaded to: SVG Repo, www.svgrepo.com, Generator: SVG Repo Mixer Tools -->
<svg height="800px" width="800px" version="1.1" id="Layer_1" xmlns="http://www.w3.org/2000/svg" xmlns:xlink="http://www.w3.org/1999/xlink" 
	 viewBox="0 0 512.001 512.001" xml:space="preserve">
<path style="fill:#DBE9FD;" d="M461.913,512H50.087c-9.223,0-16.696-7.473-16.696-16.696V150.261
	c0-9.223,7.473-16.696,16.696-16.696h411.826c9.217,0,16.696,7.473,16.696,16.696v345.043C478.609,504.528,471.13,512,461.913,512z"
	/>
<path style="fill:#C5DCFD;" d="M461.913,133.566H256V512h205.913c9.217,0,16.696-7.473,16.696-16.696V150.261
	C478.609,141.039,471.13,133.566,461.913,133.566z"/>
<path style="fill:#95673F;" d="M322.782,233.74H189.217c-9.223,0-16.696,7.473-16.696,16.696v211.478h166.957V250.435
	C339.478,241.213,332.005,233.74,322.782,233.74z"/>
<path style="fill:#875334;" d="M322.782,233.74H256v228.174h83.478V250.435C339.478,241.213,332.005,233.74,322.782,233.74z"/>
<path style="fill:#FF6243;" d="M495.305,166.957H16.697c-5.788,0-11.157-2.994-14.201-7.918s-3.32-11.07-0.733-16.245L68.544,9.229
	c2.832-5.658,8.608-9.228,14.935-9.228h345.043c6.327,0,12.103,3.571,14.935,9.228l66.783,133.565
	c2.587,5.173,2.304,11.321-0.728,16.245C506.468,163.963,501.088,166.957,495.305,166.957z"/>
<path style="fill:#8FF0F0;" d="M122.435,233.74H33.391v133.565h89.043c9.223,0,16.696-7.473,16.696-16.696V250.435
	C139.13,241.213,131.657,233.74,122.435,233.74z"/>
<path style="fill:#87D7D7;" d="M478.609,367.305h-89.043c-9.22,0-16.696-7.475-16.696-16.696V250.435
	c0-9.22,7.475-16.696,16.696-16.696h89.043V367.305z"/>
<path style="fill:#FF3501;" d="M443.457,9.229c-2.832-5.658-8.609-9.228-14.935-9.228H256v166.957h239.305
	c5.782,0,11.163-2.994,14.207-7.918c3.033-4.924,3.316-11.07,0.728-16.245L443.457,9.229z"/>
<path style="fill:#B1C6E4;" d="M372.869,512H139.13v-50.087c0-9.22,7.475-16.696,16.696-16.696h200.348
	c9.22,0,16.696,7.475,16.696,16.696V512z"/>
<path style="fill:#9DB0CA;" d="M356.174,445.218H256V512h116.87v-50.087C372.869,452.693,365.394,445.218,356.174,445.218z"/>
</svg>