<?xml version="1.0" ?>
<!-- Uploaded to: SVG Repo, www.svgrepo.com, Generator: SVG Repo Mixer Tools -->
<svg width="800px" height="800px" viewBox="0 0 120 120" id="Layer_1" version="1.1" xml:space="preserve" xmlns="http://www.w3.org/2000/svg" xmlns:xlink="http://www.w3.org/1999/xlink">
<style type="text/css">
	.st0{fill:#FF8C59;}
	.st1{fill:#FFD551;}
	.st2{fill:#EDBF9A;}
	.st3{fill:#FFD9B6;}
	.st4{fill:#EF8156;}
	.st5{fill:#F9CD53;}
</style>
<g>
<path class="st0" d="M102.3,101.7H23.2V79.8c0-5.1,3.7-9.6,9.1-11.3l22.7-6.9c5.1-1.6,10.4-1.6,15.3,0l22.7,6.9   c5.4,1.7,9.1,6.2,9.1,11.3L102.3,101.7L102.3,101.7z"/>
<rect class="st1" height="2.9" width="13.2" x="66" y="88.6"/>
<rect class="st2" height="23.3" width="16.7" x="54.4" y="47.8"/>
<path class="st3" d="M81.7,34.9C81.2,22.9,73,15.6,62.8,15.6c-10.2,0-18.5,7.4-19,19.3c-1.5,0.3-2.7,1.5-2.7,3.5   c0,2.2,1.5,4.5,3.3,4.5c0,0,0.1,0,0.1,0c2.3,10.3,9.7,19.3,18.3,19.3c8.6,0,15.9-8.9,18.2-19.3c0.1,0,0.2,0,0.2,0   c1.8,0,3.3-2.3,3.3-4.5C84.6,36.4,83.3,35.1,81.7,34.9z"/>
<g>
<path class="st4" d="M41.4,88.6h-0.6c-0.6,0-1.1,0.4-1.1,1.1v11.9h2.9V89.8C42.5,89.1,42,88.6,41.4,88.6z"/>
<path class="st4" d="M84.8,88.6h-0.6c-0.6,0-1.1,0.4-1.1,1.1v11.9H86V89.8C85.9,89.1,85.5,88.6,84.8,88.6z"/>
<polygon class="st4" points="71.2,63.3 62.8,70.8 54.4,63.3 53.2,62.2 44.3,64.9 57.5,76.8 62.8,71.1 68,76.8 81.4,64.9     72.4,62.2   "/>
</g>
<path class="st1" d="M51.6,93.6v-5.1c0-0.6-0.4-1-1-1h-2.1c-0.3-1.3-0.9-2.5-1.5-3.6l1.5-1.5c0.4-0.4,0.4-1.1,0-1.5l-3.6-3.6   c-0.4-0.4-1.1-0.4-1.5,0l-1.5,1.5c-1.2-0.7-2.4-1.2-3.7-1.6V75c0-0.6-0.4-1-1-1H32c-0.6,0-1,0.4-1,1v2.1c-1.3,0.3-2.5,0.9-3.6,1.6   l-1.5-1.5c-0.4-0.4-1.1-0.4-1.5,0l-3.6,3.6c-0.4,0.4-0.4,1.1,0,1.5l1.5,1.5c-0.7,1.2-1.2,2.4-1.5,3.6h-2.1c-0.6,0-1,0.4-1,1v5.1   c0,0.6,0.4,1,1,1h2c0.3,1.3,0.9,2.5,1.5,3.6l-1.5,1.5c-0.4,0.4-0.4,1.1,0,1.5l3.6,3.6c0.4,0.4,1.1,0.4,1.5,0l1.5-1.5   c1.2,0.7,2.4,1.2,3.6,1.5v2.1c0,0.6,0.4,1,1,1h5.1c0.6,0,1-0.4,1-1v-2.1c1.3-0.3,2.5-0.9,3.6-1.5l1.5,1.5c0.4,0.4,1.1,0.4,1.5,0   l3.6-3.6c0.4-0.4,0.4-1.1,0-1.5l-1.5-1.5c0.7-1.2,1.2-2.4,1.5-3.6h2.2C51,94.6,51.6,94.2,51.6,93.6z M35.1,98.9   c-4.8,0.3-8.7-3.6-8.4-8.4c0.2-3.9,3.4-7.1,7.4-7.4c4.8-0.3,8.7,3.6,8.4,8.4C42.2,95.5,39,98.7,35.1,98.9z"/>
<path class="st1" d="M76.3,15.3l-8.8-2.5c-2.9-0.8-6-0.8-8.9,0l-9.2,2.6c-2.1,0.6-3.6,2.4-3.9,4.6l-1.8,12.7l18.4,1.1   c0.5,0,0.9,0,1.4,0l18.4-1.1l-1.8-12.8C79.9,17.7,78.3,15.9,76.3,15.3z"/>
<path class="st1" d="M76.7,40.2l-8.6-1.5c-3.5-0.6-7.1-0.6-10.6,0L49,40.2c-1.8,0-3.6-1-4.6-2.6l-0.7-4.9l17.9,1.1   c0.8,0.1,1.6,0.1,2.4,0l17.9-1.1l-0.7,4.9C80.3,39.2,78.6,40.2,76.7,40.2z"/>
<path class="st5" d="M66.6,32.9c-2.4-0.2-4.8-0.2-7.2,0l-15.3,2l-0.1-1.2l15.5-2c2.4-0.1,4.8-0.1,7.2,0l15.2,2l-0.2,1.2L66.6,32.9z   "/>
</g>
</svg>