<svg width="24" height="24" viewBox="0 0 24 24" fill="none" xmlns="http://www.w3.org/2000/svg">
<g id="Iconly/Light/Delete">
<g id="Delete">
<path id="Stroke 1" d="M19.3238 9.4682C19.3238 9.4682 18.7808 16.2032 18.4658 19.0402C18.3158 20.3952 17.4788 21.1892 16.1078 21.2142C13.4988 21.2612 10.8868 21.2642 8.27881 21.2092C6.95981 21.1822 6.13681 20.3782 5.98981 19.0472C5.67281 16.1852 5.13281 9.4682 5.13281 9.4682" stroke="#130F26" stroke-width="1.5" stroke-linecap="round" stroke-linejoin="round"/>
<path id="Stroke 3" d="M20.708 6.2397H3.75" stroke="#130F26" stroke-width="1.5" stroke-linecap="round" stroke-linejoin="round"/>
<path id="Stroke 5" d="M17.4406 6.2397C16.6556 6.2397 15.9796 5.6847 15.8256 4.9157L15.5826 3.6997C15.4326 3.1387 14.9246 2.7507 14.3456 2.7507H10.1126C9.53358 2.7507 9.02558 3.1387 8.87558 3.6997L8.63258 4.9157C8.47858 5.6847 7.80258 6.2397 7.01758 6.2397" stroke="#130F26" stroke-width="1.5" stroke-linecap="round" stroke-linejoin="round"/>
</g>
</g>
</svg>
