<!DOCTYPE svg PUBLIC "-//W3C//DTD SVG 1.1//EN" "http://www.w3.org/Graphics/SVG/1.1/DTD/svg11.dtd">
<!-- Uploaded to: SVG Repo, www.svgrepo.com, Transformed by: SVG Repo Mixer Tools -->
<svg fill="#000000" height="800px" width="800px" version="1.1" id="Capa_1" xmlns="http://www.w3.org/2000/svg" xmlns:xlink="http://www.w3.org/1999/xlink" viewBox="0 0 297.007 297.007" xml:space="preserve">
<g id="SVGRepo_bgCarrier" stroke-width="0"/>
<g id="SVGRepo_tracerCarrier" stroke-linecap="round" stroke-linejoin="round"/>
<g id="SVGRepo_iconCarrier"> <path d="M295.74,180.449l-77.292-139.55c-1.299-2.343-3.475-4.075-6.051-4.814c-2.574-0.74-5.338-0.425-7.683,0.874L103.754,92.895 l-38.23-69.03c-1.299-2.345-3.475-4.077-6.05-4.815c-2.573-0.742-5.34-0.426-7.682,0.873L5.209,45.729 C0.328,48.432-1.436,54.58,1.267,59.46c2.704,4.883,8.854,6.646,13.73,3.941l37.748-20.911l38.216,69.003 c0.005,0.009,0.009,0.019,0.014,0.027l49.392,89.179c-9.855,15.073-11.275,34.979-1.962,51.8 c8.833,15.946,25.652,25.852,43.893,25.852c8.444,0,16.831-2.175,24.254-6.286c16.819-9.317,26.175-26.947,25.811-44.957 l59.435-32.929C296.678,191.476,298.443,185.329,295.74,180.449z M196.761,254.392c-4.435,2.457-9.435,3.756-14.463,3.756 c-10.898,0-20.946-5.916-26.222-15.437c-7.994-14.439-2.755-32.695,11.682-40.693c4.435-2.459,9.436-3.758,14.465-3.758 c10.898,0,20.943,5.915,26.218,15.436C216.439,228.139,211.199,246.393,196.761,254.392z M227.532,206.689 c-0.445-0.935-0.911-1.863-1.419-2.78c-8.832-15.946-25.651-25.852-43.891-25.852c-8.444,0-16.832,2.174-24.257,6.288 c-0.916,0.508-1.803,1.049-2.675,1.605l-41.748-75.381l42.767-23.696l14.768,26.663c1.845,3.33,5.292,5.209,8.845,5.209 c1.656,0,3.335-0.406,4.886-1.266c4.881-2.703,6.645-8.852,3.942-13.732L173.982,77.08l31.688-17.555l67.504,121.876 L227.532,206.689z"/> </g>
</svg>